<?xml version="1.0" standalone="no"?>
<!DOCTYPE svg PUBLIC "-//W3C//DTD SVG 20010904//EN"
 "http://www.w3.org/TR/2001/REC-SVG-20010904/DTD/svg10.dtd">
<svg version="1.0" xmlns="http://www.w3.org/2000/svg"
 width="307.000000pt" height="307.000000pt" viewBox="0 0 307.000000 307.000000"
 preserveAspectRatio="xMidYMid meet">
<metadata>
Created by potrace 1.11, written by Peter Selinger 2001-2013
</metadata>
<g transform="translate(0.000000,307.000000) scale(0.100000,-0.100000)"
fill="#000000" stroke="none">
<path d="M257 3063 c-3 -7 -2 -298 2 -330 0 -8 16 -13 40 -13 22 0 41 -5 43
-12 2 -7 4 -317 3 -688 l-1 -675 -34 0 -35 0 0 -170 c-1 -93 2 -172 6 -175 4
-3 181 -5 393 -4 266 0 386 -3 389 -10 2 -6 3 -123 3 -261 l-1 -250 -55 -5
-55 -5 -1 -172 -1 -173 719 0 718 0 0 -55 0 -55 210 0 210 0 0 290 0 290 -210
0 -210 0 0 -60 0 -60 -454 0 -454 0 -1 263 -1 263 112 0 112 -1 0 -50 1 -50
205 0 205 0 2 290 1 290 -209 0 -209 0 2 -55 c1 -30 -1 -60 -4 -65 -4 -6 -50
-10 -110 -10 l-103 1 -2 232 -3 232 455 0 454 0 3 -52 3 -52 190 -1 c105 0
198 2 208 4 16 3 17 25 17 291 l0 288 -210 0 -210 -1 0 -63 0 -64 -718 0 -718
0 0 -172 0 -173 55 -5 56 -5 1 -220 c0 -121 -1 -225 -3 -230 -2 -6 -59 -10
-151 -10 l-147 1 -3 687 -2 687 50 0 50 0 0 175 0 175 -299 0 c-165 0 -301 -3
-304 -7z"/>
</g>
</svg>
